<?xml version="1.0" encoding="utf-8"?>
<!-- Generator: Adobe Illustrator 17.1.0, SVG Export Plug-In . SVG Version: 6.00 Build 0)  -->
<!DOCTYPE svg PUBLIC "-//W3C//DTD SVG 1.1//EN" "http://www.w3.org/Graphics/SVG/1.1/DTD/svg11.dtd">
<svg version="1.1" id="Calque_1" xmlns="http://www.w3.org/2000/svg" xmlns:xlink="http://www.w3.org/1999/xlink" x="0px" y="0px"
	 viewBox="0 0 73 89" enable-background="new 0 0 73 89" xml:space="preserve">
<path fill-rule="evenodd" clip-rule="evenodd" fill="#FFFFFF" d="M19.6,3.1C25.4,2.6,29.8,0,32.4,0c3.8,0.1,5.6,4.1,5.5,5.7
	c-0.1,1.7-0.4,5.1-3,6.9c3.5,1.6,4.1,0.8,8.5,0.7c11.1-0.1,15.3-2.3,17.2-2.2c0.5,0.1,0.3,1-0.4,1c-0.6,0-3.6,0.4-6.1,0.9
	c-2.5,0.6-13.7,1.4-16.5,1.1c-2.7-0.3-3.1-1.1-3.7-1.8C33.5,11.8,34,9.3,34,9.3c0.6-7.5,0-7.7-2.6-7.5S26.8,2.6,25.6,3
	C24.4,3.5,22.5,3.3,19.6,3.1z"/>
<path fill-rule="evenodd" clip-rule="evenodd" fill="#FFFFFF" d="M22.3,6.2c2.7-0.4,4.6-1.5,5.4-1.4c0.8,0.1,1.1,0.9-0.8,1.4
	C26.3,6.4,25.6,6.5,22.3,6.2z"/>
<path fill-rule="evenodd" clip-rule="evenodd" fill="#FFFFFF" d="M59.6,13.4c-0.5,2-1.3,4-5.2,5.8c-1,0.6-6.9,3.5-16,1.5
	c0.6,4.4-0.1,8.1-0.2,9c-0.1,0.9-1.3,2.4-1.9,2c-0.6-0.4-0.1-2.5-0.1-2.5c0-2.4,1-8.4,0.3-9.3c-0.7-0.9-1.1-1.4-1.1-1.4
	C40.2,18.5,53.5,18.8,59.6,13.4z"/>
<path fill-rule="evenodd" clip-rule="evenodd" fill="#FFFFFF" d="M40.1,31.2c3.8,0.1,7.7,3.6,8.3,6.1c0.6,2.5,0.1,6.2-2.3,11
	c2.7,0.2,1.8,2.5,0.1,2.2s-3.5-3.9-1.5-7.7S50.1,34.5,40.1,31.2z"/>
<path fill-rule="evenodd" clip-rule="evenodd" fill="#FFFFFF" d="M32.1,68.9l-0.6-7c0-0.6,0.8-0.3,1.1,0.6
	c3.2,0.3,10.4-0.4,11.7-0.1c1.3,0.3,1.7,0.3,1.6-0.5c-0.1-0.7,0.1-5,0.1-5s-0.5-1.4,1.3-1.1c1.8,0.3,6,0.4,6.3,0.4s2.3,0.5,2.3,0.5
	c-0.4,2-0.8,2.2-3.1,2.3c-2.3,0.1-4.5,0.3-6.3-0.7l0,3.6c0.7,0,0.6,0.7,0.2,1c-0.4,0.3-2.1,2.4-6.4,2.4c-4.3-0.1-6.8-0.6-7.2-0.8
	C32.8,67.4,32.4,68.2,32.1,68.9z"/>
<path fill-rule="evenodd" clip-rule="evenodd" fill="#FFFFFF" d="M55.8,55.7c0,0-0.6-6.5-0.3-6.7c0.3-0.3,0.8-0.2,1-0.2
	c0.2,0,5.8,0,5.8,0c0.3,0,0.4-0.1,0.4-0.4c0-0.3,0.1-7.1,0.1-7.1c0-0.9,3.5-0.7,5.3-0.7c1.8,0,2.4,0.3,2.9,0.4c0.5,0.1,0.7,0,1.1,0
	s1.3,0.3,0.7,1c-0.6,0.7-1.1,2-4.1,2c-3,0-3.4-0.2-4-0.6c-0.3,0.5-0.6,3.3-1.2,4.4c-0.2,0.4-0.1,0.7,0.3,0.7c0.4,0,1.2,0.5,1.3,0.6
	c0.3,0.5-0.5,1.2-1.5,1.6c-1,0.4-1.3,0.7-2.8,0.7c-1.5,0-4.1,0-4.1,0c-0.4,0.6,0,3.2-0.2,3.8C56.3,55.8,56.2,55.7,55.8,55.7z"/>
<path fill-rule="evenodd" clip-rule="evenodd" fill="#FFFFFF" d="M20.8,72.6h2.7V87h10.2v1.8H20.9L20.8,72.6z"/>
<g>
	<g>
		<path fill-rule="evenodd" clip-rule="evenodd" fill="#FFFFFF" d="M10.9,72.6h-3L0,88.9h2.8l2.2-4.9h9l2.4,4.9h2.8L10.9,72.6z
			 M5.8,82l3.6-7.6L13,82H5.8z"/>
	</g>
</g>
<g>
	<g>
		<path fill-rule="evenodd" clip-rule="evenodd" fill="#FFFFFF" d="M45,72.6h-3l-7.9,16.3h2.8l2.2-4.9h9l2.4,4.9h2.8L45,72.6z
			 M40,82l3.6-7.6l3.6,7.6H40z"/>
	</g>
</g>
<path fill-rule="evenodd" clip-rule="evenodd" fill="#FFFFFF" d="M62,72.7h2.8v10.8c0,4.1-2.5,5.5-5.5,5.5s-5.8-1.6-5.8-4.8H56
	c0,2.5,1.6,3.1,3.2,3.1s2.8-1,2.8-2.9S62,72.7,62,72.7z"/>
<path fill-rule="evenodd" clip-rule="evenodd" fill="#FFFFFF" d="M69.9,72.7h2.6v16.1h-2.6V72.7z"/>
<path fill-rule="evenodd" clip-rule="evenodd" fill="#FFFFFF" d="M28.3,11.5c-1,3.4-5.7,5.1-8.1,6.1s-8.6,2.7-18.9,15.1
	c4.2-12.9,12.3-16.1,23.1-19.4C26.4,12.7,28.3,11.5,28.3,11.5z"/>
<path fill-rule="evenodd" clip-rule="evenodd" fill="#FFFFFF" d="M20.9,21.1C17.6,21.7,7.6,32.2,4,33.9c3.9,0.6,8.8-3.6,9.2-4
	C14.9,28.4,20.2,21.9,20.9,21.1z"/>
<path fill-rule="evenodd" clip-rule="evenodd" fill="#FFFFFF" d="M20.8,24.4c-1.5,6.2,0.4,14.3-0.4,17.8c-0.6,3.1-3,5.2-3.7,5.6
	S6.2,53.3,4.6,56.5c-0.5-4.4,5.4-7.6,7.1-8.6c1.2-0.7,7-4.2,7.6-8.3S18.7,28,20.8,24.4z"/>
<path fill-rule="evenodd" clip-rule="evenodd" fill="#FFFFFF" d="M10.3,59.4c0.7-3.9,2.4-5.4,5.8-6.4s7.7-3.1,9.7-7.8s3.9-5,4.8-5.1
	c3.2-0.3,7.8,0.5,9.6,2.3c1.8,1.8,1.6,5.9,1.5,7.2c-0.1,1.3-0.3,4.9,0.8,4.6s2.6-0.8,3.2-0.8l-3.9,3.5C38.1,56.7,39,52,39,49.1
	s-0.2-5.4-3.2-6.5c-3-1-4.9-1-5.8-0.4c-0.9,0.6-1.8,0.5-2.9,4.6c-1,4.2-1.4,5.5-5.9,7.5C16.7,56.3,13.3,56.7,10.3,59.4z"/>
</svg>
